<svg width="56" height="56" viewBox="0 0 56 56" fill="none" xmlns="http://www.w3.org/2000/svg">
<path d="M23.4602 32.3357L23.4602 32.3359C23.4511 32.3269 23.4412 32.3184 23.4305 32.3104C23.4141 32.2979 23.3977 32.2855 23.3813 32.2731C23.2647 32.1813 23.1535 32.0798 23.0489 31.9702C22.9293 31.8437 22.8098 31.7168 22.6901 31.5904C22.5633 31.4564 22.4367 31.3224 22.3103 31.1879C22.1844 31.0546 22.0593 30.9201 21.931 30.7901C21.7755 30.6352 21.6172 30.4837 21.4416 30.3595C21.2692 30.2428 21.0884 30.1403 20.9263 30.0061C20.7179 29.8442 20.5149 29.673 20.3297 29.4764C19.9846 29.1297 19.6355 28.7884 19.3019 28.4257C18.5941 27.6755 17.8844 26.9276 17.1434 26.2239C16.8392 25.9317 16.5319 25.6439 16.2261 25.354C16.1969 25.3134 16.1683 25.2723 16.141 25.2294C16.0923 25.1483 16.0295 25.1102 15.9625 25.1035C15.941 25.0826 15.9189 25.0625 15.8974 25.0415C15.6673 24.8191 15.3079 24.4584 15.078 24.2291C14.9607 24.112 14.8433 23.9953 14.7258 23.8785C14.2102 23.3689 13.6952 22.8582 13.1547 22.385C13.1255 22.3618 13.0904 22.331 13.0531 22.3013C12.6161 21.792 12.1746 21.2886 11.7258 20.7947C11.5159 20.5531 11.3086 20.3085 11.1013 20.0635C11.0615 20.0164 11.0458 19.8885 10.9811 19.9232C10.9742 19.9269 10.972 19.9281 10.9653 19.9317C10.9905 19.9692 11.0022 19.9865 11.0019 19.9962C10.9897 19.9747 10.9768 19.9539 10.9653 19.9317L10.9652 19.9316C10.2623 20.3078 10.2695 20.2728 10.3825 20.5277C10.3923 20.545 10.4029 20.5615 10.4129 20.5786C10.2149 20.4252 10.0181 20.2697 9.82386 20.11C9.51238 19.8521 9.21363 19.5745 8.92687 19.2802C8.68035 19.027 8.69626 18.8441 8.25154 19.7697C8.24645 19.7758 8.24225 19.7811 8.23703 19.7873C8.23353 19.7914 8.23527 19.7946 8.23832 19.7974C8.2055 19.8699 8.3152 19.8849 8.35281 19.929C8.54098 20.1412 8.73709 20.3424 8.93716 20.538C8.89566 20.5931 8.83956 20.6852 8.76049 20.8112C8.65305 20.7627 8.53416 20.7418 8.40863 20.7942C8.19551 20.5488 7.9818 20.3043 7.76942 20.058C7.41257 19.7295 7.50222 19.5788 6.96961 20.4712C6.93943 20.5218 7.00864 20.5525 7.03183 20.5894C7.04116 20.6043 7.05105 20.6185 7.06061 20.6331C7.05065 20.629 7.04102 20.6304 7.03193 20.6439C6.48869 21.4492 6.52515 21.3192 6.80959 21.6207C6.93868 21.7417 7.06815 21.862 7.19763 21.9824C7.17865 22.0279 7.15798 22.0864 7.13505 22.1599C7.03206 22.2369 6.95836 22.2979 6.90983 22.3472C6.88141 22.3185 6.85048 22.2874 6.82332 22.2599C6.60051 22.0386 6.37267 21.8242 6.13778 21.6206C6.098 21.5861 6.05963 21.5493 6.01674 21.5198C5.9864 21.4991 5.94501 21.4239 5.91875 21.4706C5.77593 21.7247 5.69483 22.0079 5.58597 22.2781C5.58731 22.2791 5.58853 22.2803 5.58991 22.2812C5.5891 22.2822 5.58839 22.2833 5.5876 22.2843C5.5862 22.2861 5.58447 22.2867 5.58268 22.287L5.58256 22.2871C5.58028 22.2927 5.57844 22.2984 5.57615 22.304C5.71199 22.416 5.84653 22.5299 5.98053 22.6448C5.76869 22.8003 5.63158 23.1839 5.84758 23.371C6.19672 23.6943 6.54939 24.0122 6.89975 24.3336C6.87382 24.35 6.84781 24.3666 6.82177 24.3819C6.82803 24.5599 6.80326 24.7549 6.84056 24.9159C6.86031 25.0011 6.93638 25.033 6.98578 25.0896C7.04884 25.1618 7.1137 25.2319 7.17805 25.3024C7.3361 25.4757 7.49593 25.6466 7.65544 25.818C7.65385 25.8979 7.68224 25.9747 7.7529 26.0361C8.01095 26.2752 8.27151 26.5116 8.53136 26.7488C8.6166 26.8389 8.70167 26.9292 8.78698 27.0192C8.76637 27.028 8.74575 27.0369 8.72513 27.045C8.71653 27.2079 8.67265 27.3835 8.69929 27.5337C8.71339 27.6131 8.79338 27.649 8.84221 27.7051C8.90455 27.7766 8.96898 27.8462 9.03286 27.9163C9.26209 28.1678 9.49437 28.4164 9.72631 28.6654C10.2895 29.2636 10.8561 29.8584 11.42 30.4559C12.001 31.0659 12.5986 31.6595 13.2027 32.2466C13.3063 32.3449 13.4107 32.4423 13.5152 32.5397C14.0624 33.2487 14.6649 33.9527 15.3035 34.6292C16.7478 36.1574 18.3172 37.4829 19.7675 38.3996C19.8905 38.5006 20.0158 38.5991 20.1412 38.6974C20.3297 38.8471 20.5213 38.9927 20.7003 39.1528C20.8253 39.2663 20.9419 39.3884 21.0582 39.5107C21.1577 39.6143 21.2547 39.7204 21.3531 39.825C21.545 40.0277 21.586 39.9999 21.8502 39.6221C21.9532 39.7141 22.0543 39.8038 22.158 39.8953C22.2429 39.9866 22.296 40.0477 22.3495 40.0628C22.3799 40.0884 22.4105 40.1138 22.4402 40.1402C22.4523 40.1511 22.4603 40.1937 22.4735 40.1758C22.5878 40.021 22.6729 39.9107 22.7449 39.8166C22.7825 39.784 22.827 39.7465 22.8729 39.7069C22.9994 39.8223 23.1254 39.9381 23.2524 40.053C23.6751 40.4461 23.8055 40.5605 24.1975 40.949C24.2958 41.0464 24.3227 41.2712 24.4879 41.2457C24.513 41.2418 24.538 41.2355 24.5629 41.2278C24.5767 41.3259 24.5903 41.4237 24.6167 41.3885C24.7039 41.272 24.8121 41.1546 24.9044 41.0348C25.0129 40.9539 25.12 40.8641 25.2261 40.7898C25.2595 40.7665 25.1715 40.7516 25.0771 40.7366C25.0856 40.711 25.0928 40.685 25.097 40.659C25.1164 40.5403 25.0085 40.4909 24.9058 40.4387C25.0744 40.3595 25.2161 40.1766 25.2234 40.0069C25.3175 39.9142 25.3797 39.8296 25.4183 39.7508C25.4341 39.7369 25.4495 39.7223 25.4656 39.7093C25.4625 39.7065 25.4596 39.7035 25.4566 39.7006C25.5001 39.668 25.531 39.6335 25.5512 39.5968C25.7443 39.764 25.9455 39.9225 26.1446 40.0833C26.1795 40.1058 26.2098 40.1339 26.2398 40.1624C26.2547 40.1919 26.2697 40.22 26.2932 40.212C26.3125 40.2292 26.3321 40.2459 26.3535 40.2605C26.38 40.2784 26.4097 40.3413 26.4381 40.308C26.8732 39.7978 26.9981 39.7248 26.9335 39.6318C26.9441 39.6253 26.9299 39.6168 26.9118 39.6079C26.886 39.5808 26.8503 39.5507 26.8 39.5058C26.7381 39.4565 26.677 39.4063 26.6157 39.3564C26.7453 39.2512 26.8364 39.0894 26.8045 38.9244C26.8347 38.9457 26.8652 38.9668 26.8966 38.9867C26.9257 39.0052 26.9556 39.0726 26.9875 39.0379C27.6423 38.3235 27.6069 38.4497 27.2907 38.171C27.1781 38.0767 27.0658 37.982 26.9529 37.8879C26.8947 37.8394 26.8822 37.8291 26.8342 37.7892C26.9139 37.7327 26.9223 37.7163 26.8752 37.6652C26.8813 37.659 26.8686 37.6558 26.862 37.6516C26.856 37.6454 26.8493 37.6384 26.842 37.6311C26.8217 37.6096 26.7988 37.585 26.7823 37.5673C26.7661 37.55 26.7503 37.5326 26.7343 37.5151C26.6029 37.3701 26.4734 37.2229 26.3534 37.0675C26.2136 36.8873 26.0642 36.716 25.9176 36.5419C25.889 36.5092 25.8598 36.4769 25.8305 36.4448C26.1056 36.3663 26.345 35.9883 26.1358 35.7816L26.1356 35.7817C26.1265 35.7727 26.1165 35.7641 26.1055 35.7558C26.0888 35.743 26.072 35.7302 26.0552 35.7174C25.9363 35.6233 25.8242 35.5209 25.7199 35.4116C25.6008 35.2855 25.4818 35.1591 25.3625 35.0332C25.2362 34.8997 25.1101 34.7662 24.9842 34.6322C24.8588 34.4994 24.7343 34.3655 24.606 34.2355C24.4503 34.0803 24.2912 33.928 24.111 33.7991C23.9335 33.6773 23.7458 33.5678 23.5811 33.431C23.5359 33.3957 23.4913 33.3596 23.4468 33.3234C23.4068 33.2764 23.3668 33.2294 23.327 33.1822C23.2981 33.1492 23.2687 33.1168 23.2393 33.0844C23.4834 32.9745 23.6689 32.5419 23.4602 32.3357L23.4602 32.3357ZM5.58267 22.287C5.58384 22.2841 5.58478 22.281 5.58596 22.2781C5.57586 22.2706 5.56588 22.2629 5.5556 22.2557C5.54536 22.2485 5.56846 22.2887 5.58276 22.2869L5.58267 22.287ZM6.69113 21.4631C6.67674 21.4628 6.65938 21.4408 6.649 21.4261C6.66077 21.4412 6.67583 21.4524 6.69113 21.4631Z" fill="url(#paint0_linear_38_20)"/>
<path d="M32.8031 34.8789L32.8029 34.8789C32.8152 34.8663 32.8271 34.8529 32.8385 34.8387C32.8563 34.8168 32.874 34.7948 32.8917 34.7729C33.0217 34.6166 33.1623 34.4649 33.3114 34.3194C33.4833 34.1527 33.6556 33.9861 33.8273 33.8193C34.0093 33.6427 34.1914 33.4662 34.374 33.2899C34.5551 33.1145 34.7374 32.9397 34.9151 32.7621C35.1271 32.5473 35.3356 32.3299 35.5148 32.0972C35.6844 31.8699 35.8387 31.6353 36.0273 31.4167C36.2571 31.1378 36.4971 30.8635 36.7641 30.6052C37.2382 30.128 37.7066 29.647 38.1977 29.1802C39.2165 28.1936 40.2331 27.2052 41.2025 26.1884C41.6046 25.7703 42.0019 25.3494 42.4014 24.9298C42.4549 24.8873 42.5089 24.8452 42.5648 24.8046C42.6699 24.7309 42.7265 24.6489 42.7465 24.5681C42.7752 24.5385 42.8031 24.5084 42.8318 24.4787C43.1375 24.1622 43.6309 23.6652 43.9447 23.3476C44.1049 23.1855 44.2648 23.0233 44.4248 22.8611C45.123 22.1497 45.8227 21.4387 46.4822 20.7049C46.515 20.6657 46.5579 20.618 46.5999 20.5679C47.2839 19.9497 47.9615 19.3275 48.6292 18.6983C48.9541 18.402 49.2821 18.1082 49.6106 17.8143C49.6737 17.7578 49.8286 17.7143 49.7989 17.6443C49.7957 17.6368 49.7947 17.6344 49.7917 17.6271C49.7426 17.6644 49.7198 17.6817 49.7084 17.6832C49.7362 17.6645 49.7632 17.6451 49.7917 17.6271L49.7918 17.627C49.4707 16.8668 49.511 16.8685 49.1876 17.0525C49.1653 17.0676 49.1437 17.0833 49.1216 17.0986C49.3395 16.8336 49.5598 16.5697 49.7845 16.308C50.147 15.888 50.5306 15.4792 50.9319 15.0814C51.2771 14.7394 51.4917 14.7225 50.4711 14.3761C50.4647 14.3713 50.4592 14.3673 50.4528 14.3624C50.4485 14.359 50.4444 14.3617 50.4406 14.3659C50.3602 14.3411 50.3227 14.4742 50.2636 14.5275C49.9774 14.7923 49.7031 15.0643 49.4347 15.3399C49.3766 15.3015 49.2771 15.253 49.1416 15.1838C49.2185 15.0469 49.2646 14.9018 49.2249 14.7631C49.5549 14.4622 49.8839 14.1608 50.2148 13.8607C50.6694 13.373 50.8325 13.4498 49.867 12.9928C49.8123 12.9669 49.7634 13.055 49.7154 13.0897C49.696 13.1037 49.6773 13.1182 49.6582 13.1324C49.6649 13.1198 49.665 13.1087 49.6506 13.1005C48.7906 12.6138 48.9386 12.6316 48.5292 13.028C48.3622 13.2049 48.1959 13.382 48.0295 13.5592C47.9789 13.5456 47.9129 13.5325 47.8297 13.5197C47.7566 13.4126 47.6974 13.3371 47.6475 13.2892C47.6866 13.2499 47.7291 13.2071 47.7667 13.1695C48.0698 12.8618 48.3656 12.5496 48.6497 12.2311C48.6979 12.1771 48.7486 12.1244 48.7913 12.0677C48.8214 12.0277 48.9183 11.9638 48.8674 11.9418C48.5909 11.8222 48.2688 11.7814 47.9671 11.7052C47.9657 11.707 47.9641 11.7087 47.9627 11.7105C47.9616 11.7097 47.9604 11.7091 47.9594 11.7084C47.9575 11.707 47.9571 11.7051 47.9571 11.703L47.957 11.7029C47.9508 11.7013 47.9443 11.7003 47.9381 11.6986C47.7805 11.8817 47.621 12.0636 47.4603 12.2451C47.3135 12.0242 46.882 11.9367 46.6208 12.2296C46.1738 12.7071 45.7326 13.1877 45.2876 13.6663C45.2728 13.6387 45.2577 13.6111 45.2441 13.5832C45.0314 13.6255 44.804 13.6343 44.606 13.7101C44.5012 13.7502 44.4496 13.8467 44.3734 13.9164C44.2762 14.0053 44.1813 14.096 44.0859 14.1861C43.8515 14.4076 43.6196 14.6306 43.3873 14.8534C43.2926 14.8672 43.1961 14.9159 43.1105 15.0117C42.78 15.3647 42.4521 15.7201 42.1235 16.0748C42.0011 16.1936 41.8785 16.3122 41.7562 16.431C41.7494 16.4083 41.7426 16.3855 41.7366 16.3627C41.5445 16.3844 41.3435 16.3667 41.1603 16.4277C41.0633 16.46 41.0063 16.5619 40.9309 16.6308C40.8347 16.7188 40.7403 16.8088 40.6456 16.8984C40.3054 17.2195 39.9681 17.5438 39.6305 17.8677C38.8183 18.6529 38.0095 19.4416 37.198 20.2275C36.3685 21.0362 35.5556 21.8614 34.7493 22.693C34.6138 22.8351 34.4793 22.9781 34.3447 23.1211C33.4035 23.9092 32.4585 24.7618 31.5397 25.6518C29.4638 27.6643 27.6063 29.7857 26.2563 31.6857C26.1142 31.8514 25.9745 32.0193 25.8352 32.1874C25.6234 32.4403 25.4159 32.6961 25.1935 32.9397C25.0361 33.1103 24.87 33.2726 24.7037 33.4344C24.5627 33.5727 24.4192 33.7086 24.2772 33.8458C24.0017 34.1132 24.0274 34.1563 24.4292 34.3958C24.3014 34.536 24.1766 34.6735 24.0492 34.8144C23.9254 34.9331 23.8433 35.008 23.8157 35.0744C23.7798 35.1155 23.7441 35.1568 23.7074 35.1971C23.6923 35.2137 23.6402 35.2315 23.6591 35.2437C23.8227 35.3489 23.9386 35.4282 24.0375 35.4952C24.0695 35.5335 24.106 35.5789 24.1449 35.6257C23.9851 35.7983 23.8248 35.9705 23.6654 36.1435C23.1222 36.722 22.9628 36.8991 22.4306 37.4402C22.2971 37.5759 22.0251 37.6519 22.0258 37.8428C22.0259 37.8718 22.0289 37.9002 22.0336 37.9283C21.9145 37.9639 21.7958 37.9992 21.8329 38.0236C21.9557 38.1042 22.0758 38.2096 22.2017 38.2956C22.2785 38.4085 22.366 38.5179 22.4353 38.6293C22.4571 38.6643 22.4906 38.557 22.5253 38.4421C22.5543 38.4472 22.5839 38.4506 22.614 38.4506C22.7516 38.4503 22.8298 38.3126 22.9103 38.1806C22.9741 38.3651 23.1661 38.4973 23.3666 38.4727C23.4599 38.5663 23.5493 38.6235 23.6361 38.6538C23.6498 38.6698 23.6644 38.6852 23.677 38.7018C23.6809 38.6976 23.6849 38.6935 23.6889 38.6894C23.7198 38.7347 23.7554 38.7646 23.7954 38.7813C23.5619 39.0431 23.3374 39.3128 23.1106 39.5805C23.0774 39.6264 23.0386 39.6678 22.9994 39.709C22.9616 39.7324 22.9255 39.7557 22.9309 39.782C22.9069 39.8082 22.8836 39.8348 22.8624 39.8631C22.8363 39.898 22.7563 39.9455 22.7907 39.9727C23.3193 40.3889 23.3837 40.5228 23.5058 40.428C23.5116 40.4393 23.5243 40.4208 23.5381 40.3975C23.5749 40.3616 23.6171 40.3134 23.6796 40.2449C23.7492 40.1618 23.8198 40.0795 23.8902 39.9971C23.992 40.1302 24.1681 40.2066 24.37 40.1364C24.3391 40.1764 24.3087 40.2167 24.2793 40.2579C24.2521 40.2961 24.1666 40.3447 24.2022 40.3757C24.934 41.0126 24.7903 40.9953 25.1784 40.5657C25.3108 40.4136 25.4435 40.2618 25.5756 40.1095C25.6436 40.031 25.6582 40.0141 25.7142 39.9493C25.7671 40.0328 25.7851 40.0396 25.8543 39.9737C25.8606 39.9797 25.8666 39.9641 25.8729 39.9554C25.8813 39.947 25.8909 39.9377 25.9008 39.9277C25.93 39.8993 25.9634 39.8673 25.9873 39.8443C26.0108 39.8217 26.0344 39.7995 26.058 39.7772C26.254 39.5929 26.4522 39.4105 26.6585 39.2376C26.8978 39.0366 27.1283 38.8258 27.3616 38.6177C27.4056 38.5774 27.4492 38.5364 27.4926 38.4954C27.5366 38.8064 27.9431 39.0163 28.2263 38.7276L28.2262 38.7275C28.2386 38.7149 28.2506 38.7013 28.2624 38.6867C28.2807 38.6644 28.2989 38.6419 28.3171 38.6195C28.4504 38.4601 28.5922 38.307 28.7408 38.1619C28.9121 37.9959 29.0837 37.8299 29.2549 37.6637C29.4362 37.4878 29.6176 37.312 29.7994 37.1365C29.9798 36.9618 30.1613 36.7878 30.339 36.6102C30.5513 36.3951 30.7609 36.1765 30.9466 35.9374C31.1232 35.7031 31.287 35.4589 31.4792 35.2368C31.5293 35.1762 31.5802 35.1162 31.6312 35.0563C31.6943 34.9997 31.7573 34.9431 31.8206 34.8866C31.865 34.8458 31.9089 34.8047 31.9526 34.7634C32.0395 35.0315 32.5205 35.1669 32.8031 34.8788L32.8031 34.8789ZM47.9571 11.703C47.9604 11.7038 47.9638 11.7044 47.9671 11.7052C47.9778 11.6918 47.9887 11.6784 47.9992 11.6648C48.0095 11.6512 47.9576 11.6865 47.9572 11.7031L47.9571 11.703ZM48.7378 12.8566C48.7407 12.8395 48.77 12.8146 48.7893 12.7994C48.7692 12.8163 48.7533 12.8364 48.7378 12.8566Z" fill="url(#paint1_linear_38_20)"/>
<defs>
<linearGradient id="paint0_linear_38_20" x1="5.09739" y1="18.3261" x2="13.535" y2="28.2135" gradientUnits="userSpaceOnUse">
<stop stop-color="#666666" stop-opacity="0"/>
<stop offset="0.0001" stop-color="#FF0000"/>
</linearGradient>
<linearGradient id="paint1_linear_38_20" x1="52.7532" y1="10.3517" x2="38.9587" y2="21.6557" gradientUnits="userSpaceOnUse">
<stop stop-color="#666666" stop-opacity="0"/>
<stop offset="0.0001" stop-color="#FF0000"/>
</linearGradient>
</defs>
</svg>
