<svg xmlns="http://www.w3.org/2000/svg" width="96" height="96" viewBox="0 0 96 96" fill="none">
  <path d="M50.7111 78.5141V31.1335H73.3961V77.0823L75.3052 74.9092C77.5899 72.3097 78.7983 69.3243 78.8084 66.278V29.4783C78.8084 27.4068 77.1228 25.7212 75.0513 25.7212H74.1374V18.4709C74.1374 16.0034 72.7666 13.81 70.5427 12.7235C68.3697 11.6573 65.8412 11.901 63.9119 13.3429L47.9796 23.6801L32.0473 13.3429C30.1179 11.901 27.5895 11.6573 25.4164 12.7235C23.2028 13.7999 21.8218 16.0034 21.8218 18.4709V25.7212H20.918C18.8465 25.7212 17.1609 27.4068 17.1609 29.4783V80.1794C17.1609 82.2509 18.8465 83.9365 20.918 83.9365L67.9737 83.9162C71.0302 83.9162 74.0257 82.6977 76.6354 80.4129L78.8084 78.4938L50.6807 78.5141H50.7111ZM67.1613 17.6992C67.5776 17.3742 67.9838 17.4961 68.1869 17.5875C68.39 17.689 68.7352 17.9327 68.7352 18.4608V25.711H54.844L67.1715 17.6992H67.1613ZM27.2645 18.4608C27.2645 17.9327 27.6098 17.689 27.8129 17.5875C28.016 17.4859 28.4222 17.3742 28.8385 17.6992L41.166 25.711H27.2645V18.4608ZM45.2785 78.5141H22.5935V31.1335H45.2785V78.5141Z" fill="#333333"/>
</svg>