<svg xmlns="http://www.w3.org/2000/svg" width="96" height="96" viewBox="0 0 96 96" fill="none">
  <path fill-rule="evenodd" clip-rule="evenodd" d="M18.465 60.1532C18.3829 60.4303 18.3521 60.728 18.3521 61.0769V71.3296H45.2798C45.2798 71.3296 45.2946 72.7998 45.5198 74.1006C45.7775 75.5891 46.3998 76.8716 46.3998 76.8716H12.7998V60.9127C12.7998 60.3893 12.8716 59.363 13.0051 58.8396C14.0622 54.8678 16.669 51.3989 20.1686 49.336L45.3745 34.1058C48.5355 32.0532 49.9826 28.338 49.0487 24.6741C47.9403 20.3328 43.6811 17.5824 39.1244 18.3008C34.8037 18.9781 31.9095 22.4573 31.9095 26.9833C31.9095 31.0371 35.6965 34.701 37.9339 36.2199L39.1859 37.0718L37.6773 37.1436C34.6908 37.2668 31.889 36.3328 30.175 34.6394C27.0448 31.54 26.7883 28.4509 26.7883 25.803C26.7883 18.2495 33.9929 12.8819 40.4688 12.7998H40.6638C47.8992 12.7998 53.9236 18.2084 54.6625 25.372C55.2373 30.8729 52.6407 36.066 47.9095 38.9191L23.0525 54.211C20.7434 55.5759 19.1115 57.6799 18.465 60.1532ZM57.5768 47.6217C56.3003 48.4278 55.0911 49.3348 53.9602 50.3537H53.949C53.1316 49.8722 52.2807 49.3796 51.3737 48.8645C51.291 48.8192 51.0085 48.6586 50.6056 48.4297L50.6056 48.4297L50.6055 48.4297C49.318 47.6981 46.8007 46.2677 45.6409 45.6622C45.4841 45.5726 43.4463 44.5537 43.4463 44.5537L44.6779 44.6657C47.1525 44.8784 52.3366 45.5726 57.5768 47.6217ZM65.7841 60.9326H71.2675V65.7255H76.0604V71.2089H71.2675V76.0018H65.7841V71.2089H60.9912V65.7255H65.7841V60.9326ZM82.3471 54.6462C78.7423 51.0109 73.6448 48.8988 68.5269 48.9191C63.4091 48.8988 58.3014 51.0109 54.7067 54.6462C51.0714 58.251 48.9593 63.3485 48.9796 68.4664C48.9593 73.5842 51.0714 78.6919 54.7067 82.2866C58.3116 85.9218 63.4091 88.034 68.5269 88.0137C73.6448 88.034 78.7524 85.9218 82.3471 82.2866C85.9824 78.6817 88.0945 73.5842 88.0742 68.4664C88.0945 63.3485 85.9824 58.2409 82.3471 54.6462ZM68.5269 82.4592C60.7994 82.4592 54.5443 76.1939 54.5443 68.4765C54.5443 60.7592 60.8095 54.4939 68.5269 54.4939C76.2443 54.4939 82.5096 60.7592 82.5096 68.4765C82.5096 76.1939 76.2443 82.4592 68.5269 82.4592Z" fill="#333333"/>
</svg>