<svg xmlns="http://www.w3.org/2000/svg" width="96" height="96" viewBox="0 0 96 96" fill="none">
  <g clip-path="url(#clip0_9_17244)">
    <path fill-rule="evenodd" clip-rule="evenodd" d="M58.9812 56.9149L82.0057 79.9407L80.0477 79.4827L78.3343 79.0777C74.0947 78.0731 70.2137 75.9613 67.0852 72.9594L66.7276 72.6091L55.0361 60.9193C56.4944 59.7356 57.8183 58.3919 58.9812 56.9149ZM39.1958 16C53.0885 16 64.3917 27.3348 64.3917 41.2687C64.3917 55.2016 53.0885 66.5363 39.1958 66.5363C25.3032 66.5363 14 55.2016 14 41.2687C14 27.3348 25.3032 16 39.1958 16ZM39.1958 21.0536C28.0816 21.0536 19.0392 30.1218 19.0392 41.2687C19.0392 52.4146 28.0816 61.4827 39.1958 61.4827C50.3101 61.4827 59.3525 52.4146 59.3525 41.2687C59.3525 30.1218 50.3101 21.0536 39.1958 21.0536Z" fill="#333333" />
  </g>
  <defs>
    <clipPath id="clip0_9_17244">
      <rect width="96" height="96" fill="white"/>
    </clipPath>
  </defs>
</svg>