<svg xmlns="http://www.w3.org/2000/svg" width="96" height="96" viewBox="0 0 96 96" fill="none">
  <path fill-rule="evenodd" clip-rule="evenodd" d="M78.9811 66.3084C82.2407 60.754 84.0076 54.2958 83.9872 48.0102C84.0279 38.4853 80.1692 29.1737 73.4266 22.4819C66.7552 15.7495 57.5045 11.901 48.0406 11.901H47.7765C38.2923 11.901 29.0416 15.7495 22.3803 22.4616C15.6175 29.1635 11.7689 38.4751 11.7994 47.9797C11.7588 57.5046 15.6175 66.8162 22.36 73.5079C29.0315 80.2403 38.2822 84.0889 47.7461 84.0889H48.0101C54.1535 84.0889 60.236 82.4641 65.6788 79.3874L84.2005 83.7944L78.9811 66.3084ZM64.7852 73.5486L76.2183 76.2673L73.0103 65.5164L73.6805 64.4603C76.8081 59.5354 78.514 53.6966 78.4937 48.0102C78.5242 40.0389 75.1732 31.956 69.5375 26.3609C63.9526 20.7252 55.9102 17.3844 47.9999 17.3844H47.7867C39.8561 17.3844 31.8138 20.7252 26.2491 26.3406C20.5931 31.9459 17.2422 40.0288 17.2726 47.9797C17.2422 55.9509 20.5931 64.0339 26.2288 69.6289C31.8138 75.2647 39.8561 78.6055 47.7664 78.6055H47.9898C53.5239 78.6055 58.987 77.062 63.8205 74.1274L64.7852 73.5486ZM46.5479 56.8242C43.8062 56.8242 42.0698 58.8957 42.0698 61.3023C42.0698 63.7089 43.8062 65.7804 46.5479 65.7804C49.2896 65.7804 51.026 63.7089 51.026 61.3023C51.026 58.8957 49.2896 56.8242 46.5479 56.8242ZM40.7091 31.5194C42.3541 30.7476 44.5678 30.2196 47.3603 30.2196L47.3501 30.2399C54.3364 30.2399 58.9668 33.6112 58.9668 39.2977C58.9668 42.7603 57.3319 45.6036 53.1889 48.4976L51.2596 49.8481C49.9598 50.762 49.1881 51.5338 49.1881 52.8843V53.1686H43.6945V52.7828C43.6945 49.2185 44.9537 47.0963 47.7461 44.974L48.7616 44.2023C51.026 42.4658 52.0821 41.0645 52.0821 39.2367C52.0821 36.9723 50.4472 35.4288 46.6393 35.4288C42.8314 35.4288 39.4093 36.9723 36.8098 38.8001C36.8098 34.6977 37.7237 32.9207 40.7091 31.5194Z" fill="#333333"/>
</svg>