<svg xmlns="http://www.w3.org/2000/svg" width="96" height="96" viewBox="0 0 96 96" fill="none">
  <g clip-path="url(#clip0_9_18589)">
    <path fill-rule="evenodd" clip-rule="evenodd" d="M22.8256 19.7649L21.9685 18.9092L21.95 20.39L21.9372 21.6857C21.9073 25.0118 22.9125 27.7897 24.8418 29.7161L33.2866 38.1439L33.3145 38.1152L43.456 48.3158L33.2965 58.3732L33.2868 58.364L30.8435 60.8012L29.3329 62.2979L29.3385 62.3032L24.842 66.7917C22.9126 68.7182 21.9074 71.4961 21.9373 74.8222L21.9501 76.1179L21.9686 77.5987L22.8244 76.7429L23.0095 76.5593L37.255 62.3422L37.2265 62.3142L47.9365 51.7141L58.6465 62.3142L58.618 62.3422L72.8636 76.5593L73.0487 76.7429L73.9044 77.5987L73.9229 76.1179L73.9357 74.8222C73.9656 71.4961 72.9604 68.7182 71.0311 66.7917L66.5345 62.3032L66.5402 62.2979L65.0295 60.8012L62.5863 58.364L62.5765 58.3732L52.4171 48.3158L62.5585 38.1152L62.5864 38.1439L71.0312 29.7161C72.9605 27.7897 73.9658 25.0118 73.9359 21.6857L73.9231 20.39L73.9045 18.9092L73.0474 19.7649L72.8637 19.9486L63.9585 28.8352L63.9445 28.822L60.3445 32.4422L58.6182 34.1656L58.6255 34.1722L47.9365 44.925L37.2475 34.1722L37.2549 34.1656L35.5285 32.4422L31.9286 28.822L31.9145 28.8352L23.0093 19.9486L22.8256 19.7649Z" fill="#333333"/>
  </g>
  <defs>
    <clipPath id="clip0_9_18589">
      <rect width="96" height="96" fill="white"/>
    </clipPath>
  </defs>
</svg>